<svg data-name="Groupe 671" xmlns="http://www.w3.org/2000/svg" width="41" height="41" viewBox="0 0 41 41">
    <path data-name="Tracé 785" d="M41 20.5a20.5 20.5 0 1 0-23.7 20.25V26.425h-5.208V20.5H17.3v-4.517c0-5.138 3.061-7.976 7.743-7.976a31.525 31.525 0 0 1 4.589.4v5.045h-2.588c-2.547 0-3.341 1.58-3.341 3.2V20.5h5.686l-.909 5.926H23.7V40.75A20.5 20.5 0 0 0 41 20.5z" style="fill:#1877f2"/>
    <path data-name="Tracé 786" d="m318.42 218.454.911-5.937h-5.7v-3.853c0-1.624.8-3.208 3.347-3.208h2.59V200.4a31.585 31.585 0 0 0-4.6-.4c-4.692 0-7.758 2.843-7.758 7.991v4.525H302v5.937h5.215v14.353a20.757 20.757 0 0 0 6.419 0v-14.352z" transform="translate(-289.926 -192.056)" style="fill:#fff"/>
</svg>
