<svg xmlns="http://www.w3.org/2000/svg" width="26" height="26" viewBox="0 0 26 26">
    <defs>
        <style>
            .cls-2{fill:none;stroke:#0f1647}
        </style>
    </defs>
    <g id="Groupe_1688" data-name="Groupe 1688" transform="translate(-318 -635)">
        <rect id="Rectangle_404" data-name="Rectangle 404" width="26" height="26" rx="13" transform="translate(318 635)" style="fill:#fff"/>
        <g id="Group_778" data-name="Group 778" transform="translate(323 642)">
            <g id="Group_690" data-name="Group 690">
                <path id="Path_805" data-name="Path 805" class="cls-2" d="M-350.2 182.735a4.339 4.339 0 0 0-3.088-1.277 4.338 4.338 0 0 0-3.091 1.281l-.431.432-.438-.438a4.357 4.357 0 0 0-3.094-1.285 4.335 4.335 0 0 0-3.084 1.278 4.319 4.319 0 0 0-1.278 3.09 4.335 4.335 0 0 0 1.285 3.088l6.283 6.282a.447.447 0 0 0 .317.134.452.452 0 0 0 .318-.131l6.3-6.272a4.347 4.347 0 0 0 1.275-3.094 4.326 4.326 0 0 0-1.274-3.088z" transform="translate(364.864 -181.287)"/>
                <path id="Path_806" data-name="Path 806" class="cls-2" d="M-356.817 195.481a.613.613 0 0 1-.432-.181l-6.282-6.282a4.5 4.5 0 0 1-1.333-3.2 4.486 4.486 0 0 1 1.325-3.206 4.5 4.5 0 0 1 3.2-1.325 4.512 4.512 0 0 1 3.209 1.332l.324.324.317-.317a4.5 4.5 0 0 1 3.205-1.328 4.5 4.5 0 0 1 3.2 1.325 4.491 4.491 0 0 1 1.322 3.205 4.5 4.5 0 0 1-1.329 3.205l-6.3 6.273a.619.619 0 0 1-.426.175z" transform="translate(364.864 -181.287)"/>
            </g>
        </g>
    </g>
</svg>
