<svg xmlns="http://www.w3.org/2000/svg" width="19.241" height="23.672" viewBox="0 0 19.241 23.672">
    <defs>
        <style>
            .cls-1{fill:#18a1b1}
        </style>
    </defs>
    <g id="Groupe_739" data-name="Groupe 739" transform="translate(250.471 217.279)">
        <g id="Groupe_735" data-name="Groupe 735">
            <g id="Groupe_734" data-name="Groupe 734">
                <g id="Groupe_733" data-name="Groupe 733">
                    <path id="Tracé_823" data-name="Tracé 823" class="cls-1" d="M-240.851-217.029c-5.167 0-9.37 4.791-9.37 9.75 0 6.729 8.6 13.07 8.964 13.3a.755.755 0 0 0 .406.119.756.756 0 0 0 .407-.119c.366-.233 8.964-6.574 8.964-13.3 0-4.959-4.203-9.75-9.371-9.75z"/>
                    <path id="Tracé_824" data-name="Tracé 824" class="cls-1" d="M-240.851-193.607a1.007 1.007 0 0 1-.541-.158c-.09-.057-9.079-6.473-9.079-13.514 0-5.327 4.495-10 9.62-10s9.621 4.673 9.621 10c0 7.041-8.989 13.457-9.08 13.514a1.007 1.007 0 0 1-.541.158z"/>
                </g>
            </g>
        </g>
        <g id="Groupe_738" data-name="Groupe 738">
            <g id="Groupe_737" data-name="Groupe 737">
                <g id="Groupe_736" data-name="Groupe 736">
                    <path id="Tracé_825" data-name="Tracé 825" d="M-240.851-212.76a4.922 4.922 0 0 0-4.916 4.917 4.922 4.922 0 0 0 4.916 4.917 4.922 4.922 0 0 0 4.917-4.917 4.922 4.922 0 0 0-4.917-4.917z" style="fill:#fff"/>
                </g>
            </g>
        </g>
    </g>
</svg>
