<svg xmlns="http://www.w3.org/2000/svg" width="21.391" height="13" viewBox="0 0 21.391 13">
    <defs>
        <style>
            .cls-3{stroke:none}
        </style>
    </defs>
    <g id="Groupe_1400" data-name="Groupe 1400" transform="translate(-323 -347)">
        <g id="Groupe_1397" data-name="Groupe 1397" transform="translate(35 119)">
            <g id="Intersection_1" data-name="Intersection 1" style="fill:none">
                <path class="cls-3" d="M-1334.2-963.5a11.925 11.925 0 0 1 10.7-6.5 11.923 11.923 0 0 1 10.695 6.5 11.923 11.923 0 0 1-10.695 6.5 11.924 11.924 0 0 1-10.7-6.5z" transform="translate(1622.196 1198)"/>
                <path d="M-1323.5-958.4c2.012 0 3.965-.552 5.65-1.597a10.34 10.34 0 0 0 3.45-3.503 10.341 10.341 0 0 0-3.45-3.504 10.705 10.705 0 0 0-5.65-1.596c-2.011 0-3.965.552-5.65 1.596a10.342 10.342 0 0 0-3.451 3.504 10.34 10.34 0 0 0 3.451 3.503 10.709 10.709 0 0 0 5.65 1.597m0 1.4c-4.702 0-8.766-2.651-10.696-6.5 1.93-3.849 5.994-6.5 10.696-6.5s8.766 2.651 10.695 6.5c-1.929 3.849-5.993 6.5-10.695 6.5z" style="fill:#5a5f81;stroke:none" transform="translate(1622.196 1198)"/>
            </g>
            <g id="Ellipse_141" data-name="Ellipse 141" transform="translate(295 231)" style="stroke:#5a5f81;stroke-width:1.4px;fill:none">
                <circle class="cls-3" cx="3.5" cy="3.5" r="3.5"/>
                <circle cx="3.5" cy="3.5" r="2.8" style="fill:none"/>
            </g>
        </g>
    </g>
</svg>
