<svg xmlns="http://www.w3.org/2000/svg" width="48.086" height="50.375" viewBox="0 0 48.086 50.375">
    <defs>
        <style>
            .cls-2{fill:#fff}
        </style>
    </defs>
    <g id="Groupe_1683" data-name="Groupe 1683" transform="translate(-24 -505.74)">
        <path id="davide-cantelli-jpkfc5_d-DI-unsplash" data-name="davide-cantelli-jpkfc5 d-DI-unsplash" d="M5851.093-1306.2v43.375a7 7 0 0 0 7 7l41.086-.11c-5.661-27.813-22.436-43.717-48.086-50.265z" transform="translate(-5827.092 1811.943)" style="fill:#f54925"/>
        <g id="Groupe_1305" data-name="Groupe 1305" transform="translate(32.007 524.418)">
            <path id="Tracé_874" data-name="Tracé 874" class="cls-2" d="M-1033.924-305.061a.882.882 0 0 0-.49-.533l-3.281-1.4-.319-3.552a.864.864 0 0 0-.357-.629.873.873 0 0 0-.708-.144l-3.478.795-2.346-2.686a.9.9 0 0 0-1.315 0l-2.346 2.686-3.478-.795a.87.87 0 0 0-.707.144.866.866 0 0 0-.358.629l-.314 3.552-3.281 1.4a.876.876 0 0 0-.49.533.864.864 0 0 0 .083.717l1.831 3.062-1.831 3.062a.883.883 0 0 0-.083.716.88.88 0 0 0 .49.534l3.281 1.4.318 3.552a.87.87 0 0 0 .358.629.872.872 0 0 0 .708.144l3.477-.795 2.347 2.687a.853.853 0 0 0 .655.3.88.88 0 0 0 .66-.3l2.346-2.686 3.478.795a.87.87 0 0 0 .707-.144.868.868 0 0 0 .358-.63l.314-3.556 3.281-1.4a.886.886 0 0 0 .49-.534.861.861 0 0 0-.083-.716l-1.831-3.062 1.831-3.062a.864.864 0 0 0 .083-.713zm-3.678 4.229 1.585 2.652-2.839 1.214a.879.879 0 0 0-.529.725l-.275 3.075-3.014-.69a.876.876 0 0 0-.852.275l-2.031 2.328-2.031-2.328a.874.874 0 0 0-.66-.3 1.009 1.009 0 0 0-.2.022l-3.01.686-.275-3.075a.876.876 0 0 0-.528-.725l-2.839-1.215 1.585-2.652a.867.867 0 0 0 0-.9l-1.585-2.651 2.839-1.215a.877.877 0 0 0 .528-.725l.275-3.075 3.015.691a.881.881 0 0 0 .852-.275l2.031-2.329 2.031 2.329a.871.871 0 0 0 .852.275l3.01-.687.275 3.075a.879.879 0 0 0 .528.726l2.839 1.214-1.585 2.652a.878.878 0 0 0 0 .9z" transform="translate(1057.234 313.498)"/>
            <path id="Tracé_875" data-name="Tracé 875" class="cls-2" d="M-1040.99-304.736a.874.874 0 0 0-1.236 0l-6.623 6.622a.875.875 0 0 0 0 1.236.871.871 0 0 0 .616.258.872.872 0 0 0 .617-.258l6.627-6.627a.862.862 0 0 0-.001-1.231z" transform="translate(1056.69 312.929)"/>
            <path id="Tracé_876" data-name="Tracé 876" class="cls-2" d="M-1046.506-302.985a2.011 2.011 0 0 0-2.01-2.01 2.011 2.011 0 0 0-2.01 2.01 2.011 2.011 0 0 0 2.01 2.01 2.011 2.011 0 0 0 2.01-2.01zm-2.272 0a.264.264 0 0 1 .262-.262.263.263 0 0 1 .262.262.262.262 0 0 1-.262.262.263.263 0 0 1-.262-.262z" transform="translate(1056.785 312.929)"/>
            <path id="Tracé_877" data-name="Tracé 877" class="cls-2" d="M-1040.805-300.533a2.011 2.011 0 0 0-2.01 2.01 2.011 2.011 0 0 0 2.01 2.01 2.011 2.011 0 0 0 2.01-2.01 2.015 2.015 0 0 0-2.01-2.01zm0 2.272a.264.264 0 0 1-.262-.262.263.263 0 0 1 .262-.262.262.262 0 0 1 .262.262.263.263 0 0 1-.262.262z" transform="translate(1056.269 312.63)"/>
        </g>
    </g>
</svg>
