<svg id="Group_818" data-name="Group 818" xmlns="http://www.w3.org/2000/svg" width="23.298" height="29.003" viewBox="0 0 23.298 29.003">
    <defs>
        <style>
            .cls-1{fill:#0f1647}
        </style>
    </defs>
    <g id="Group_817" data-name="Group 817">
        <path id="Path_852" data-name="Path 852" class="cls-1" d="m-617.161 1163.067-1.635-18.41a.786.786 0 0 0-.783-.718h-3.363a5.646 5.646 0 0 0-5.641-5.553 5.644 5.644 0 0 0-5.641 5.553h-3.363a.782.782 0 0 0-.783.718l-1.635 18.41c0 .023-.006.047-.006.069a4.07 4.07 0 0 0 4.286 3.8h14.282a4.069 4.069 0 0 0 4.286-3.8.31.31 0 0 0-.004-.069zm-11.418-23.105a4.067 4.067 0 0 1 4.064 3.977h-8.128a4.067 4.067 0 0 1 4.061-3.977zm7.14 25.4h-14.282a2.516 2.516 0 0 1-2.709-2.189l1.565-17.646h2.639v2.394a.786.786 0 0 0 .783.789h.006a.786.786 0 0 0 .788-.784v-2.4h8.134v2.394a.785.785 0 0 0 .781.789h.007a.786.786 0 0 0 .789-.783v-2.4h2.639l1.571 17.646a2.52 2.52 0 0 1-2.712 2.189z" transform="translate(640.232 -1138.163)"/>
        <path id="Path_853" data-name="Path 853" class="cls-1" d="M-621.434 1167.168h-14.282a4.291 4.291 0 0 1-4.508-4.023l.005-.063 1.636-18.436a1 1 0 0 1 1-.922h3.148a5.887 5.887 0 0 1 5.856-5.552 5.889 5.889 0 0 1 5.855 5.552h3.148a1.014 1.014 0 0 1 1 .922l1.634 18.4a.574.574 0 0 1 .007.1 4.291 4.291 0 0 1-4.499 4.022zm-16.144-23a.558.558 0 0 0-.562.519l-1.635 18.412a3.846 3.846 0 0 0 4.049 3.633h14.291a3.851 3.851 0 0 0 4.064-3.579l-.005-.05-1.635-18.416a.565.565 0 0 0-.561-.519h-3.582v-.219a5.443 5.443 0 0 0-5.418-5.334 5.439 5.439 0 0 0-5.418 5.334v.219zm16.144 21.423h-14.282a2.746 2.746 0 0 1-2.932-2.408l1.585-17.878H-634v2.617a.56.56 0 0 0 .553.566h.012a.561.561 0 0 0 .569-.552v-2.626h8.579v2.617a.56.56 0 0 0 .553.566h.012a.562.562 0 0 0 .566-.555v-2.627h3.064l1.589 17.854a2.746 2.746 0 0 1-2.935 2.431zm-15.223-19.842-1.543 17.451a2.308 2.308 0 0 0 2.491 1.947h14.282a2.306 2.306 0 0 0 2.491-1.972l-1.551-17.425h-2.213v2.173a1.012 1.012 0 0 1-1.01 1.01 1.011 1.011 0 0 1-1.011-1.01v-2.173h-7.69v2.173a1.012 1.012 0 0 1-1.01 1.01 1.011 1.011 0 0 1-1.011-1.01v-2.173zm12.375-1.582h-8.581v-.227a4.309 4.309 0 0 1 4.287-4.195 4.312 4.312 0 0 1 4.287 4.195zm-8.122-.445h7.661a3.865 3.865 0 0 0-3.83-3.529 3.864 3.864 0 0 0-3.83 3.532z" transform="translate(640.224 -1138.171)"/>
    </g>
</svg>
