<svg data-name="Groupe 1232" xmlns="http://www.w3.org/2000/svg" width="18.159" height="13.717" viewBox="0 0 18.159 13.717">
    <path data-name="Tracé 1178" d="m44.817 95.008-.717-3.531h1.127v-1.114h-1.334l-.211-1.114h-4.417v1.114h1.2l.974 6.834h-3.184l-1.083-2.418a1.667 1.667 0 0 0-.781-3.153h-1.323v-4.8H29v5.914h.8v2.228h1.946a3.865 3.865 0 0 0-1.188 2.785v.557h1.185a2.827 2.827 0 0 0 5.526 0h4.311a2.816 2.816 0 1 0 3.239-3.3zM30.13 91.626v-3.69h3.81v3.689zm.8 2.228V92.74h5.46a.557.557 0 1 1 0 1.114zm3.57 1.114h1.519l1 2.228h-5.278a2.816 2.816 0 0 1 2.759-2.228zm0 4.457a1.693 1.693 0 0 1-1.595-1.114H36.1a1.693 1.693 0 0 1-1.6 1.114zm8.241-9.062.931 4.684a2.827 2.827 0 0 0-1.3.709l-.772-5.393h1.142zm1.6 9.062a1.671 1.671 0 1 1 1.692-1.671 1.684 1.684 0 0 1-1.692 1.671z" transform="translate(-29.002 -86.822)" style="fill:#1aa0af"/>
</svg>
