<svg xmlns="http://www.w3.org/2000/svg" width="48.005" height="50.375" viewBox="0 0 48.005 50.375">
    <defs>
        <style>
            .cls-2{fill:#fff}
        </style>
    </defs>
    <g id="Groupe_1742" data-name="Groupe 1742" transform="translate(-24 -487.625)">
        <path id="davide-cantelli-jpkfc5_d-DI-unsplash" data-name="davide-cantelli-jpkfc5 d-DI-unsplash" d="M5851.093-1306.2v43.375a7 7 0 0 0 7 7l41.005-.055c-5.661-27.813-22.355-43.772-48.005-50.32z" transform="translate(-5827.093 1793.828)" style="fill:#f47f9b"/>
        <path id="Tracé_1317" data-name="Tracé 1317" class="cls-2" d="M11.552 64.1a1.405 1.405 0 0 1 .35 1.4l-.868 2.829L5.465 73.9 3.87 72.308 0 68.439l5.548-5.547 2.852-.886a1.4 1.4 0 0 1 1.41.349zm-9.565 4.339 3.477 3.477 4.329-4.33.765-2.495-1.744-1.744-2.514.783zM7.2 66.7a1.054 1.054 0 0 1 1.464-1.516l.026.026A1.054 1.054 0 0 1 7.2 66.7z" transform="translate(38.215 450.301)"/>
        <path id="Tracé_1321" data-name="Tracé 1321" class="cls-2" d="M-1033.924-305.061a.882.882 0 0 0-.49-.533l-3.281-1.4-.319-3.552a.864.864 0 0 0-.357-.629.873.873 0 0 0-.708-.144l-3.478.795-2.346-2.686a.9.9 0 0 0-1.315 0l-2.346 2.686-3.478-.795a.87.87 0 0 0-.707.144.866.866 0 0 0-.358.629l-.314 3.552-3.281 1.4a.876.876 0 0 0-.49.533.864.864 0 0 0 .083.717l1.831 3.062-1.831 3.062a.883.883 0 0 0-.083.716.88.88 0 0 0 .49.534l3.281 1.4.318 3.552a.87.87 0 0 0 .358.629.872.872 0 0 0 .708.144l3.477-.795 2.347 2.687a.853.853 0 0 0 .655.3.88.88 0 0 0 .66-.3l2.346-2.686 3.478.795a.87.87 0 0 0 .707-.144.868.868 0 0 0 .358-.63l.314-3.556 3.281-1.4a.886.886 0 0 0 .49-.534.861.861 0 0 0-.083-.716l-1.831-3.062 1.831-3.062a.864.864 0 0 0 .083-.713zm-3.678 4.229 1.585 2.652-2.839 1.214a.879.879 0 0 0-.529.725l-.275 3.075-3.014-.69a.876.876 0 0 0-.852.275l-2.031 2.328-2.031-2.328a.874.874 0 0 0-.66-.3 1.009 1.009 0 0 0-.2.022l-3.01.686-.275-3.075a.876.876 0 0 0-.528-.725l-2.839-1.215 1.585-2.652a.867.867 0 0 0 0-.9l-1.585-2.651 2.839-1.215a.877.877 0 0 0 .528-.725l.275-3.075 3.015.691a.881.881 0 0 0 .852-.275l2.031-2.329 2.031 2.329a.871.871 0 0 0 .852.275l3.01-.687.275 3.075a.879.879 0 0 0 .528.726l2.839 1.214-1.585 2.652a.878.878 0 0 0 0 .9z" transform="translate(1090.234 819.498)"/>
    </g>
</svg>
