<?xml version="1.0" encoding="utf-8"?>
<!-- Generator: Adobe Illustrator 19.0.0, SVG Export Plug-In . SVG Version: 6.00 Build 0)  -->
<svg version="1.1" id="Layer_1" xmlns="http://www.w3.org/2000/svg" xmlns:xlink="http://www.w3.org/1999/xlink" x="0px" y="0px"
	 viewBox="0 0 416 192.3" style="enable-background:new 0 0 416 192.3;" xml:space="preserve">
<style type="text/css">
	.st0{fill:#FFFFFF;}
</style>
<g id="XMLID_8_">
	<path id="XMLID_6_" class="st0" d="M43.5,138.5c-2.3-3.1-6-4.9-9.8-4.9v58.6H0V50h33.7v55.7h5.5l26.6-34.8
		C75.9,57.7,91.6,50,108.2,50H122l-54.2,69.2l56.9,73.1h-13.8c-16.7,0-32.5-7.7-42.6-21L43.5,138.5z"/>
	<path id="XMLID_5_" class="st0" d="M201.3,50h7.7c17.1-0.1,32.5,10.4,38.7,26.3l18.7,47.4c2.2,5.7,8.7,8.5,14.4,6.2
		c2.8-1.1,5.1-3.4,6.2-6.2l18.5-47.3c6.2-16,21.6-26.4,38.7-26.4h7.5l-53.3,127.7c-4.9,11.9-18.6,17.6-30.6,12.7
		c-5.7-2.4-10.3-6.9-12.7-12.7L201.3,50z"/>
	<path id="XMLID_4_" class="st0" d="M148.7,67.9h29.4v109.5c0,8.1-6.6,14.7-14.7,14.7c-8.1,0-14.7-6.6-14.7-14.7c0,0,0,0,0,0V67.9z"
		/>
	<path id="XMLID_3_" class="st0" d="M189,38.7c0,21.3-11.6,38.7-25.6,38.7s-25.6-17.3-25.6-38.7S149.3,0,163.4,0S189,17.3,189,38.7"
		/>
	<path id="XMLID_2_" class="st0" d="M375.2,68.9h29.2v108.6c0,8.1-6.5,14.6-14.6,14.6s-14.6-6.5-14.6-14.6V68.9z"/>
	<path id="XMLID_1_" class="st0" d="M414.6,10.7V5.6c0-3.1-1.9-5.4-3.9-5.4c-2,0-3.9,2.4-3.9,5.5v5.8l-0.8,32.4
		c0,3.2-1.3,5.4-2.5,5.4c-1.2,0-2.5-2.4-2.5-5.5l-0.7-38.4c0-3-1.9-5.2-3.7-5.2c-1.8,0-3.9,2.4-3.9,5.6v5v0.3L392,43.8
		c0.1,1.6-0.4,3.3-1.3,4.6c-0.1,0.1-0.2,0.3-0.3,0.3c-0.2,0.3-0.6,0.4-1,0.5c-1.2,0-2.5-2.4-2.5-5.5L386.3,6V5.7
		c0-3.2-1.9-5.5-3.9-5.5c-2,0-3.9,2.4-3.9,5.6l-0.3,11.6L377.6,44c0,3.2-1.3,5.4-2.5,5.4c-1.2,0-2.5-2.4-2.5-5.5l-0.3-35.4V5.6
		c0-3.2-1.9-5.5-3.9-5.5c-2,0-3.9,2.4-3.9,5.6v5c0,0-1,20.2-1,34.5v1.4c0,0,0,0.3,0,0.4c0.7,18.2,12.2,32.7,26.2,32.7
		S416,64.1,416,45.2S414.6,10.7,414.6,10.7"/>
</g>
</svg>
