<svg xmlns="http://www.w3.org/2000/svg" width="17.9" height="12.9" viewBox="0 0 17.9 12.9">
    <defs>
        <style>
            .cls-2{fill:none;stroke:#5a5f81;stroke-width:1.2px;stroke-linecap:round;stroke-linejoin:round}
        </style>
    </defs>
    <g id="Groupe_1375" data-name="Groupe 1375" transform="translate(635.91 -346.27)">
        <g id="Rectangle_430" data-name="Rectangle 430">
            <path id="Tracé_1202" data-name="Tracé 1202" d="M-618.61 348.22v9a1.351 1.351 0 0 1-1.35 1.35h-14a1.357 1.357 0 0 1-1.35-1.35v-9a1.31 1.31 0 0 1 .49-1.03 1.3 1.3 0 0 1 .86-.32h14a1.333 1.333 0 0 1 1.03.48 1.33 1.33 0 0 1 .32.87z" style="fill:none;stroke:#5a5f81;stroke-width:1.2px"/>
        </g>
        <path id="Tracé_1203" data-name="Tracé 1203" class="cls-2" d="m-618.93 347.35-7.69 4.98-8.2-5.14a1.3 1.3 0 0 1 .86-.32h14a1.333 1.333 0 0 1 1.03.48z"/>
        <path id="Tracé_1204" data-name="Tracé 1204" class="cls-2" d="M-618.61 357.22a1.351 1.351 0 0 1-1.35 1.35h-14a1.357 1.357 0 0 1-1.35-1.35v-9a1.31 1.31 0 0 1 .49-1.03 1.3 1.3 0 0 1 .86-.32h14a1.333 1.333 0 0 1 1.03.48 1.33 1.33 0 0 1 .32.87z"/>
        <path id="Tracé_1205" data-name="Tracé 1205" class="cls-2" d="M-618.61 348.22v9a1.351 1.351 0 0 1-1.35 1.35h-14a1.357 1.357 0 0 1-1.35-1.35v-9a1.31 1.31 0 0 1 .49-1.03 1.3 1.3 0 0 1 .86-.32h14a1.333 1.333 0 0 1 1.03.48 1.33 1.33 0 0 1 .32.87z"/>
    </g>
</svg>
