<svg xmlns="http://www.w3.org/2000/svg" width="41" height="41" viewBox="0 0 41 41">
    <g data-name="Groupe 1547" transform="translate(-1.879 -1.781)">
        <circle data-name="Ellipse 182" cx="20.5" cy="20.5" r="20.5" transform="translate(1.879 1.781)"/>
        <path data-name="Tracé 1282" d="M262.36 187.2c-1.305 1.333-2.749 1.124-4.123.5a4.992 4.992 0 0 0-4.342 0c-1.922.873-2.943.618-4.1-.5-6.535-7.07-5.571-17.837 1.857-18.246 1.8.1 3.065 1.048 4.123 1.124 1.577-.336 3.089-1.3 4.776-1.176a5.735 5.735 0 0 1 4.557 2.526 5.693 5.693 0 0 0 .649 10.035 14.364 14.364 0 0 1-3.4 5.754zm-6.73-18.323a5.676 5.676 0 0 1 5.015-5.98c.385 3.628-3.134 6.341-5.015 5.983z" transform="translate(-233.257 -154.659)" style="fill:#fff"/>
    </g>
</svg>
