<svg xmlns="http://www.w3.org/2000/svg" width="19.876" height="17.499" viewBox="0 0 19.876 17.499">
    <defs>
        <style>
            .cls-3{stroke:none}
        </style>
    </defs>
    <g id="Groupe_1380" data-name="Groupe 1380" transform="translate(-25.124 -297)">
        <g id="Ellipse_134" data-name="Ellipse 134" transform="translate(38 300)" style="fill:#fff;stroke:#5a5f81;stroke-width:1.2px">
            <circle class="cls-3" cx="2" cy="2" r="2"/>
            <circle cx="2" cy="2" r="1.4" style="fill:none"/>
        </g>
        <g id="Union_3" data-name="Union 3" style="fill:none">
            <path class="cls-3" d="m-1332.132-959.927-1.721-2.458-.015-.022-.558-.8a1 1 0 0 1 .246-1.393l7.553-5.288a6.031 6.031 0 0 1-.1-1.115 6 6 0 0 1 6-6 6 6 0 0 1 6 6 6 6 0 0 1-6 6 5.976 5.976 0 0 1-3.875-1.419l-1.461 1.023.621.887a1 1 0 0 1-.246 1.392l-1.229.86a1 1 0 0 1-1.392-.246l-.621-.887-.9.634.574.819a1 1 0 0 1-.246 1.393l-1.229.859a1 1 0 0 1-.573.181 1 1 0 0 1-.828-.42z" transform="translate(1359.731 1274)"/>
            <path d="m-1331.264-960.78.902-.63-1.148-1.64 2.87-2.01 1.195 1.706.9-.63-1.193-1.706 3.201-2.242.706.597a4.802 4.802 0 0 0 3.1 1.135c2.646 0 4.8-2.153 4.8-4.8s-2.154-4.8-4.8-4.8a4.806 4.806 0 0 0-4.718 5.693l.143.76-8.023 5.618 2.065 2.95m-.048 1.278a1 1 0 0 1-.82-.426l-1.721-2.458a.868.868 0 0 1-.015-.022l-.558-.797a1 1 0 0 1 .245-1.394l7.553-5.287a6 6 0 1 1 2.022 3.467l-1.461 1.022.62.888a1 1 0 0 1-.245 1.392l-1.228.86a1 1 0 0 1-1.393-.245l-.62-.887-.906.633.574.82a1 1 0 0 1-.246 1.393l-1.228.86a.995.995 0 0 1-.573.18z" style="fill:#5a5f81;stroke:none" transform="translate(1359.731 1274)"/>
        </g>
    </g>
</svg>
