<svg xmlns="http://www.w3.org/2000/svg" width="40.258" height="41.079" viewBox="0 0 40.258 41.079">
    <path data-name="Tracé 787" d="M150.268 110.96a17.6 17.6 0 0 0-.434-4.2H130.55v7.622h11.32a10.037 10.037 0 0 1-4.2 6.664l-.038.255 6.1 4.724.422.042c3.88-3.583 6.116-8.855 6.116-15.108" transform="translate(-110.01 -89.964)" style="fill:#4285f4"/>
    <path data-name="Tracé 788" d="M32.274 172.847a19.577 19.577 0 0 0 13.6-4.975l-6.481-5.021a12.157 12.157 0 0 1-7.12 2.054 12.365 12.365 0 0 1-11.685-8.535l-.241.02-6.34 4.907-.083.23a20.525 20.525 0 0 0 18.349 11.32" transform="translate(-11.734 -131.768)" style="fill:#34a853"/>
    <path data-name="Tracé 789" d="M8.855 84.694a12.645 12.645 0 0 1-.685-4.062 13.287 13.287 0 0 1 .662-4.062l-.012-.27-6.42-4.988-.21.1a20.5 20.5 0 0 0 0 18.44l6.664-5.158" transform="translate(0 -60.092)" style="fill:#fbbc05"/>
    <path data-name="Tracé 790" d="M32.274 7.942A11.384 11.384 0 0 1 40.216 11l5.8-5.66A19.734 19.734 0 0 0 32.274 0a20.525 20.525 0 0 0-18.349 11.32l6.641 5.158a12.416 12.416 0 0 1 11.708-8.536" transform="translate(-11.734)" style="fill:#eb4335"/>
</svg>
