<svg id="Group_815" data-name="Group 815" xmlns="http://www.w3.org/2000/svg" width="29.013" height="29.004" viewBox="0 0 29.013 29.004">
    <defs>
        <style>
            .cls-1{fill:#1aa1b0}
        </style>
    </defs>
    <g id="Group_814" data-name="Group 814" transform="translate(712.909 -1137.639)">
        <path id="Path_848" data-name="Path 848" class="cls-1" d="M-698.4 1155.767a3.624 3.624 0 0 1-3.62-3.62 3.624 3.624 0 0 1 3.62-3.621 3.626 3.626 0 0 1 3.621 3.621 3.625 3.625 0 0 1-3.621 3.62zm0-4.837a1.218 1.218 0 0 0-1.217 1.217 1.218 1.218 0 0 0 1.217 1.217 1.218 1.218 0 0 0 1.217-1.217 1.217 1.217 0 0 0-1.217-1.217z"/>
    </g>
    <g id="Group_788" data-name="Group 788" transform="translate(712.909 -1137.639)">
        <g id="Group_787" data-name="Group 787">
            <g id="Path_838" data-name="Path 838">
                <path id="Path_849" data-name="Path 849" class="cls-1" d="M-710.481 1166.643a2.42 2.42 0 0 1-1.713-.7 2.393 2.393 0 0 1-.515-2.664l7.254-16.926a2.391 2.391 0 0 1 1.268-1.268l16.928-7.251a2.416 2.416 0 0 1 2.662.517 2.4 2.4 0 0 1 .508 2.638l-7.258 16.935a2.422 2.422 0 0 1-1.262 1.265l-16.936 7.26a2.5 2.5 0 0 1-.936.194zm25.029-27.446-.855.845-16.936 7.254-7.257 16.935 16.94-7.247 7.26-16.934z"/>
            </g>
        </g>
    </g>
</svg>
